<svg aria-hidden="true" style="position:absolute;width:0;height:0" xmlns="http://www.w3.org/2000/svg" overflow="hidden"><defs><symbol id="characteristic-01-antenna" viewBox="0 0 32 32"><path fill="var(--color1, #212121)" d="M30.773 22.098l-8.443-8.505.937-4.616c.224.091.485.144.757.146h.033a2.16 2.16 0 10-2.024-1.405l-.005-.015-.005-.015-4.96.605L8.972.16A.53.53 0 008.595 0a.531.531 0 00-.373.155L6.709 1.659a.53.53 0 000 .754l.814.826a14.943 14.943 0 002.519 17.663c.041.04.09.073.143.097l.003.001a2.986 2.986 0 00-.052.546v6.188h-6.4a2.67 2.67 0 00-2.667 2.667v1.067c0 .295.239.533.533.533h24.533a.533.533 0 00.533-.533v-1.067a2.67 2.67 0 00-2.667-2.667h-6.4v-2.742c.916.201 1.968.317 3.047.32h.01c2.608 0 5.058-.675 7.185-1.86l-.075.038-.077.038.818.823a.53.53 0 00.376.16.533.533 0 00.373-.155l1.512-1.504a.535.535 0 000-.754zM23.28 6.233a1.067 1.067 0 11.753 1.824h-.003a1.066 1.066 0 01-.747-1.823h-.002zm-1.256 3.505l-.598 2.946-1.175-1.182 1.774-1.763zm-.606-.902l-1.92 1.909-1.485-1.494 3.405-.415zM24.004 28.8a1.6 1.6 0 011.6 1.6v.533H2.137V30.4a1.6 1.6 0 011.6-1.6h20.267zm-7.466-2.133v1.067h-5.333v-1.067h5.333zM11.204 25.6v-4.053c0-1.294 1.196-2.347 2.667-2.347s2.667 1.053 2.667 2.347V25.6h-5.333zm6.4-1.696v-2.357c0-1.882-1.675-3.413-3.733-3.413l-.058-.001h-.002c-1.346 0-2.528.7-3.202 1.756l-.009.015-.009.016A13.869 13.869 0 018.312 4.033l18.602 18.708c-1.822.947-3.98 1.503-6.266 1.503a13.85 13.85 0 01-3.136-.358l.093.018zm11.289-.684L7.836 2.039l.755-.752 7.935 7.98c.004 0 .006.007.009.009L29.65 22.468l-.757.752z"/><path fill="var(--color2, #2196f3)" d="M13.876 20.267h-.007a1.6 1.6 0 00-.002 3.2h.007a1.6 1.6 0 00.003-3.2zm.373 1.978a.53.53 0 01-.376.155h-.002a.534.534 0 01-.001-1.066h.001a.534.534 0 01.374.911h.005z"/></symbol><symbol id="characteristic-02-clock" viewBox="0 0 32 32"><path fill="var(--color1, #212121)" d="M31.297 15.301C31.295 6.848 24.441-.002 15.989 0S.686 6.855.688 15.308a15.305 15.305 0 0010.649 14.576.593.593 0 00.187.028h.001a.667.667 0 00.348-.097l-.003.002-.003.002a.647.647 0 00.281-.347l.001-.005.001-.004 3.865-12.25a1.913 1.913 0 00-.01-3.826h-.01.001a1.873 1.873 0 00-.842.201l.011-.005.011-.005-5.106-5.107a.637.637 0 10-.902.902l5.103 5.109a1.87 1.87 0 00.533 2.305l.004.003-3.683 11.673C3.847 25.782.121 17.709 2.802 10.431S13.556-.573 20.834 2.108c7.278 2.681 11.004 10.754 8.323 18.032-1.345 3.581-4.003 6.406-7.374 7.938l-.088.036-.398-1.874a.639.639 0 00-1.05-.343l.001-.001.001-.001-3.837 3.426a.639.639 0 00.227 1.084l.005.001 4.898 1.563a.637.637 0 00.817-.748l.001.004.001.004-.391-1.839c5.528-2.374 9.329-7.772 9.329-14.057v-.034.002zm-15.305-.637a.638.638 0 010 1.276.638.638 0 010-1.276zm2.101 14.863l2.184-1.948.602 2.84-2.787-.892z"/><path fill="var(--color2, #2196f3)" d="M15.354 3.185V4.46a.638.638 0 001.276 0V3.185a.638.638 0 00-1.276 0zM3.876 14.663a.638.638 0 000 1.276h1.275a.638.638 0 000-1.276H3.876zm24.232 1.276a.638.638 0 000-1.276h-1.275a.638.638 0 000 1.276h1.275z"/></symbol><symbol id="characteristic-03-diagram" viewBox="0 0 32 32"><path fill="var(--color2, #2196f3)" d="M14.926 14.965h1.066v4.797h-1.066v-4.797zm4.264 2.132h1.066v2.665H19.19v-2.666zm-8.529 1.599h1.066v1.066h-1.066v-1.066zm-3.198-.533h1.066v1.599H7.463v-1.6z"/><path fill="var(--color1, #212121)" d="M1.599 28.291h25.587a1.6 1.6 0 001.599-1.599v-2.133a1.6 1.6 0 00-1.599-1.599h-.532V9.667l3.028-2.868a1.608 1.608 0 10-.742-.753l-.004-.01-2.281 2.162v-1.23a1.6 1.6 0 00-1.599-1.599H3.734h-.001a1.6 1.6 0 00-1.599 1.599V22.96h-.533a1.6 1.6 0 00-1.599 1.599v2.132a1.6 1.6 0 001.599 1.599zM30.384 4.837a.533.533 0 010 1.066.533.533 0 010-1.066zM3.198 6.969c0-.294.238-.533.533-.533h21.322c.294 0 .533.239.533.533v2.239l-1.066 1.013V8.036a.533.533 0 00-.533-.533H4.797a.533.533 0 00-.533.533v13.326c0 .294.239.533.533.533h19.19a.533.533 0 00.533-.533v-9.674l1.066-1.01v12.284H3.198V6.97zm4.798 6.929h-.004a1.6 1.6 0 101.111 2.748l1.853.93a.53.53 0 00.636-.122v-.002l3.939-4.431 3.872 2.901a.526.526 0 00.318.106h.002a.53.53 0 00.367-.146l3.365-3.188v8.131H5.331V8.564h18.124v2.66l-3.772 3.572-3.904-2.927a.534.534 0 00-.718.071v.001l-3.993 4.493-1.493-.747c.01-.056.017-.123.02-.19v-.003a1.6 1.6 0 00-1.599-1.599zm.533 1.6v.013a.533.533 0 01-1.066 0v-.014.001a.533.533 0 011.066 0v.001zm3.198 8.529h5.331v.533a.533.533 0 01-.533.533h-4.264a.533.533 0 01-.533-.533v-.533zm-10.661.533c0-.294.238-.533.533-.533h9.062v.533a1.6 1.6 0 001.599 1.599h4.264a1.6 1.6 0 001.599-1.599v-.533h9.062c.294 0 .533.239.533.533v2.132a.533.533 0 01-.533.533H1.598a.533.533 0 01-.533-.533v-2.133z"/></symbol><symbol id="characteristic-04-astronaut" viewBox="0 0 32 32"><path fill="var(--color2, #2196f3)" d="M31.974 4.524a.537.537 0 00-.424-.362h-.006l-1.91-.278-.855-1.731c-.179-.365-.777-.365-.956 0l-.855 1.731-1.911.278a.54.54 0 00-.429.355l-.001.004-.001.004a.532.532 0 00.135.547l1.383 1.348-.327 1.903a.534.534 0 00.524.624.535.535 0 00.252-.063l-.003.002 1.709-.899 1.709.899a.534.534 0 00.772-.569v.003l.001.003-.326-1.903 1.383-1.348a.533.533 0 00.133-.554l.001.004.001.004zm-2.463 1.327a.533.533 0 00-.152.478v-.006l.191 1.114-1-.526a.512.512 0 00-.246-.061h-.003c-.085 0-.17.02-.249.061l-1 .526.191-1.114a.533.533 0 00-.153-.472l-.81-.79 1.119-.162a.534.534 0 00.399-.286l.001-.003.001-.003.5-1.013.5 1.013a.537.537 0 00.399.292h.003l1.119.162-.809.789zm-3.378 14.671h-1.067v1.067h1.067v-1.067zm0 2.134h-1.067v1.067h1.067v-1.067zm1.067-1.067h-1.067v1.067H27.2v-1.067zm-2.133 0H24v1.067h1.067v-1.067zm-2.667 4.8h-1.067v1.067H22.4v-1.067zm0 2.133h-1.067v1.067H22.4v-1.067zm1.067-1.066H22.4v1.067h1.067v-1.067zm-2.134 0h-1.067v1.067h1.067v-1.067zM16 24.256h-1.067v1.067H16v-1.067zm0 2.133h-1.067v1.067H16v-1.067zm1.067-1.067H16v1.067h1.067v-1.067zm-2.134 0h-1.067v1.067h1.067v-1.067zm-9.066-19.2H4.8v1.067h1.067V6.122zm0 2.133H4.8v1.067h1.067V8.255zm1.066-1.066H5.866v1.067h1.067V7.189zm-2.133 0H3.733v1.067H4.8V7.189z"/><path fill="var(--color1, #212121)" d="M24.715 14.159a1.774 1.774 0 00-1.179-.703l-.009-.001a1.764 1.764 0 00-1.343.355l.004-.003-1.253.96-1.898 1.417-1.358-.541c2.422-1.087 4.114-3.508 4.114-6.32 0-3.823-3.123-6.933-6.961-6.933S7.871 5.5 7.871 9.323a6.86 6.86 0 001.12 3.758l-2.769-.024c-.008 0-.016.004-.023.005a.523.523 0 00-.159.032l.004-.001-.038.013c-.006.002-.013.003-.019.006l-3.233 1.597-.001.001-1.893.911a.429.429 0 00-.064.036l.002-.001a1.782 1.782 0 00-.594 2.306l-.005-.01c.22.424.593.742 1.044.886l.013.003c.16.052.343.082.534.082h.006c.29 0 .577-.071.839-.211l1.388-.738 2.264-1.169 1.357-.008-6.782 6.75c-.303.299-.49.714-.49 1.173v.008a1.66 1.66 0 001.666 1.66h.006c.459 0 .875-.185 1.177-.485l1.314-1.309 1.741-1.3.901.897-1.762 1.754-.002.001-1.339 1.333c-.303.299-.49.714-.49 1.173V28.461c0 .459.187.875.49 1.175.325.323.753.485 1.18.485s.855-.162 1.18-.485l3.481-3.467.001-.002 1.01-1-.004-.004c.006-.006.016-.008.022-.015l5.166-5.658 3.471.494a.546.546 0 00.073.005h.002a.542.542 0 00.187-.038c.017-.006.033-.015.05-.023.019-.009.039-.015.058-.027l3.213-2.133c.012-.008.018-.021.029-.029.012-.01.029-.014.041-.026l1.271-1.191a1.777 1.777 0 00.209-2.366l.003.005zM2.13 17.77a.706.706 0 01-.564.05l.005.001a.716.716 0 01-.215-1.258l.002-.001 1.314-.632.449 1.313-.992.527zm3.498-1.827l-1.548.8-.439-1.283 2.027-1-.04 1.484zm15.099-6.621c0 .919-.219 1.785-.599 2.559l-4.181-1.899a1.866 1.866 0 00-.783-1.384l-.006-.004 1.464-4.861c2.378.757 4.104 2.975 4.104 5.588zm-11.789 0c0-3.234 2.644-5.867 5.894-5.867.253 0 .5.021.745.052l-1.432 4.754c-.019-.001-.037-.006-.057-.006-1.033 0-1.873.838-1.873 1.867s.84 1.867 1.873 1.867c.694 0 1.294-.383 1.618-.945l3.863 1.755a5.891 5.891 0 01-4.737 2.39c-3.25 0-5.894-2.632-5.894-5.867zm5.956.8c0 .441-.362.8-.806.8s-.806-.359-.806-.8c0-.441.362-.8.806-.8s.806.359.806.8zM2.465 25.146a.606.606 0 01-.855.001.591.591 0 010-.844l.963-.958.851.848-.959.955zm3.214 3.734a.606.606 0 01-.855.001.591.591 0 010-.844l.963-.959.852.848-.959.955zm3.481-3.469l-.002.001-1.765 1.76-.852-.848 1.765-1.757a.507.507 0 00.088-.132l.001-.003c.007-.014.02-.026.026-.04.017-.041.019-.085.026-.128.003-.025.014-.047.014-.073 0-.036-.012-.07-.02-.105-.006-.032-.006-.065-.019-.096a.533.533 0 00-.091-.138c-.01-.012-.014-.027-.025-.038h-.001l-.001-.002-1.607-1.6c-.017-.017-.039-.024-.058-.038a.507.507 0 00-.087-.058.445.445 0 00-.093-.032.586.586 0 00-.103-.02.505.505 0 00-.095.005.53.53 0 00-.104.02.502.502 0 00-.096.046l.002-.001c-.02.011-.042.015-.061.029l-1.773 1.324-.901-.897 2.399-2.386 4.36 4.288-.928.919zm6.819-7.017c-.015-.002-.03.004-.045.003l-.026-.001a.562.562 0 00-.092.008l.003-.001a.513.513 0 00-.088.021.541.541 0 00-.18.109c-.013.011-.028.017-.04.029l-4.698 5.146-4.328-4.257 2.833-2.818a.532.532 0 00.002-.755.53.53 0 00-.377-.156h-.004l-2.219.013.028-1.607 3.104.027a6.948 6.948 0 004.982 2.101c.438 0 .864-.045 1.279-.123.04.032.079.065.13.085l2.409.96.331 1.644-3.003-.427zm4.041.178l-.313-1.558 1.447-1.08.947 1.256-2.08 1.382zm3.754-2.831l-.838.785-.931-1.236.832-.637a.73.73 0 01.547-.142h-.004a.724.724 0 01.479.282l.001.002a.712.712 0 01-.085.947z"/><path fill="var(--color1, #212121)" d="M13.602 18.544l-2.143-2.133a.53.53 0 00-.752 0l-2.143 2.133a.531.531 0 000 .756l2.143 2.133a.53.53 0 00.752 0l2.143-2.133a.532.532 0 000-.756zm-2.519 1.759l-1.387-1.381 1.387-1.381 1.387 1.381-1.387 1.381zm6.081-15.232l-.258 1.036c.071.018 1.738.452 1.738 2.149h1.067c0-2.017-1.666-2.966-2.547-3.184zm2.547 4.251h-1.067v1.067h1.067V9.322z"/></symbol><symbol id="customers-01" viewBox="0 0 59 32"><path d="M26.786 10.306h-4.525v11.193h11.826v-4.278l2.435 2.302V8H24.348l2.438 2.306zm.282.101h6.911v6.543l-6.911-6.543zm-2.936 9.457v-7.53h.546v7.019h7.155v.512h-7.701zm1.534 3.712l-.285-.584h-.237l.414.783v.452h.216v-.452l.414-.783h-.237l-.285.584zm.741.365h.48l.101.285h.226l-.47-1.234h-.191l-.47 1.234h.226l.097-.285zm.421-.174h-.358l.177-.515.181.515zm.908.125a.32.32 0 00.108.254.423.423 0 00.296.097.496.496 0 00.313-.098c.007.004.028.031.07.08h.24c-.108-.128-.171-.198-.181-.212a.61.61 0 00.108-.376h-.181c0 .084-.017.16-.052.226l-.237-.282c.049-.035.077-.056.083-.059a.51.51 0 00.128-.13l.001-.002a.279.279 0 00.038-.142v-.001a.25.25 0 00-.087-.195.31.31 0 00-.219-.08.334.334 0 00-.24.084.31.31 0 00-.087.229c0 .042.01.083.028.125s.052.094.101.153c-.091.066-.153.122-.184.171s-.045.101-.045.156zm.406.188c-.059 0-.111-.017-.146-.056a.175.175 0 01-.056-.127v-.009c0-.07.035-.125.101-.177l.028-.021.268.32a.46.46 0 01-.195.07zm-.111-.797a.15.15 0 01.035-.104c.024-.024.056-.038.094-.038s.07.01.094.035a.1.1 0 01.035.076v.004a.157.157 0 01-.052.122s-.011.007-.024.021l-.094.063c-.059-.087-.087-.146-.087-.177zm2.244.543h-.212c-.01.087-.038.15-.08.188a.287.287 0 01-.191.059.243.243 0 01-.212-.108.566.566 0 01-.069-.306v-.108c0-.132.024-.233.076-.299a.247.247 0 01.216-.104c.08 0 .139.021.181.059s.069.104.08.191h.212a.472.472 0 00-.143-.313.486.486 0 00-.33-.111.469.469 0 00-.445.278.694.694 0 00-.063.292v.018-.001.115c0 .111.021.212.063.299s.098.153.174.198c.07.044.156.07.247.07h.014-.001a.483.483 0 00.337-.111.42.42 0 00.146-.306zm1.179-.184v-.069c0-.118-.021-.226-.063-.317s-.105-.16-.181-.209c-.077-.049-.167-.073-.268-.073s-.191.024-.268.073-.139.118-.181.212-.066.198-.066.32v.07c.003.118.024.223.066.313a.48.48 0 00.444.281h.006a.503.503 0 00.272-.073.478.478 0 00.176-.205l.001-.003a.768.768 0 00.063-.32zm-.212-.066v.066a.533.533 0 01-.08.317c-.049.073-.122.108-.219.108a.252.252 0 01-.219-.108.556.556 0 01-.08-.317v-.073c.003-.132.028-.233.08-.306s.125-.111.219-.111.167.038.219.111c.052.073.08.177.08.313z"/></symbol><symbol id="customers-02" viewBox="0 0 59 32"><path d="M28.515 7.631c-.073-.007-.146-.007-.219-.01h-.16c-.136 0-.278.003-.418.01h-.031a9.798 9.798 0 00-3.718.961l.059-.026c-.01.003-.059.028-.15.07v7.701c.212-.07.327-.111.352-.118.226-.082.552-.181.883-.268l.094-.021c.841-.225 1.81-.361 2.808-.376h.009v1.012c-.125 0-.247.003-.372.01h-.028c-.792.046-1.533.165-2.246.351l.079-.018c-.98.248-1.839.593-2.638 1.034l.056-.029V8.036c.78-.464 1.683-.841 2.639-1.084l.071-.015a10.29 10.29 0 012.549-.33h.15c.177.003.351.014.515.024a7.47 7.47 0 011.321.213l-.052-.011v.998a8.096 8.096 0 00-1.231-.188h-.024c-.087-.007-.174-.014-.254-.014h-.045zm2.48 1.04a10.94 10.94 0 002.758-.361l-.076.017c.98-.249 1.839-.594 2.638-1.034l-.057.029v9.701a10.19 10.19 0 01-2.637 1.087l-.072.016c-.764.203-1.642.322-2.547.327h-.069c-.665 0-1.31-.084-1.925-.242l.054.012V8.46a8.23 8.23 0 001.253.188c.223.018.452.024.682.024zm3.903.171c-.21.077-.536.177-.867.267l-.111.026c-.956.247-1.938.372-2.922.376-.229 0-.442-.007-.647-.021-.017 0-.111-.007-.282-.018v7.923c.146.011.226.017.243.021.223.017.452.028.685.028a9.368 9.368 0 002.368-.314l-.065.015a9.53 9.53 0 001.856-.669l-.057.025c.01-.007.063-.031.153-.073V8.724l-.355.118zm-11.517 12.33a.49.49 0 00-.191-.039l-.023.001h.001-.012a.565.565 0 00-.391.157.536.536 0 00-.11.174l-.001.004a.583.583 0 00-.042.217v1.321a.652.652 0 00.052.271c.031.07.077.129.132.177.052.045.115.077.181.094s.132.028.198.028c.073 0 .146-.014.212-.046s.125-.073.177-.125a.547.547 0 00.156-.384v-.148h-.344v.118a.333.333 0 01-.021.115.22.22 0 01-.049.077.364.364 0 01-.073.038.257.257 0 01-.073.01.167.167 0 01-.091-.014.151.151 0 01-.069-.056.31.31 0 01-.049-.169v-1.24c0-.066.014-.136.045-.198a.18.18 0 01.072-.062h.001a.178.178 0 01.094-.014c.032-.003.059.004.087.017s.048.031.066.056a.294.294 0 01.059.177v.115h.341v-.136a.633.633 0 00-.157-.417.474.474 0 00-.181-.118zm1.837-.042a.6.6 0 00-.389.146.576.576 0 00-.131.181l-.002.004a.577.577 0 00-.049.235v.023-.001 1.262a.604.604 0 00.049.261.558.558 0 00.316.288.66.66 0 00.204.038h.001a.605.605 0 00.393-.149.487.487 0 00.129-.177.595.595 0 00.052-.246v-.016.001-1.262a.643.643 0 00-.052-.258.516.516 0 00-.128-.184.631.631 0 00-.393-.146zm.218 1.952a.273.273 0 01-.055.083c-.045.038-.104.059-.163.059s-.115-.021-.16-.059a.192.192 0 01-.055-.082v-.001c-.014-.031-.017-.066-.014-.101v-1.262a.203.203 0 01.014-.101.18.18 0 01.056-.083c.045-.038.101-.059.16-.059s.118.021.163.059a.257.257 0 01.055.082l.001.002c.01.031.014.066.014.101v1.262a.502.502 0 01-.014.104l.001-.003zm2.866-1.931h-.334l-.435 1.27h-.007l-.438-1.27h-.327v2.397h.341V22.09h.007l.334 1.03h.17l.341-1.03h.003v1.457h.344V21.15zm1.75.039a.745.745 0 00-.237-.038h-.518v2.397h.341v-.936h.174a.636.636 0 00.309-.066.503.503 0 00.187-.182l.001-.002a.537.537 0 00.076-.208 1.738 1.738 0 00-.014-.612.544.544 0 00-.125-.223.443.443 0 00-.192-.128l-.003-.001zm-.014.984a.166.166 0 01-.086.083h-.001a.334.334 0 01-.143.032l-.022-.001h.001-.153v-.814h.174a.34.34 0 01.156.028.2.2 0 01.08.09.355.355 0 01.028.132v.16c0 .056.003.115 0 .163h-.003a.353.353 0 01-.031.125zm1.544-1.023l-.525 2.397h.341l.101-.515h.462l.101.515h.341l-.539-2.397h-.282zm.136.686h.004l.167.87h-.341l.17-.87zm2.345.758l-.515-1.443h-.327v2.397h.341v-1.44h.007l.522 1.44h.32v-2.397h-.341v1.444h-.007zm1.819-.491h-.007l-.275-.953h-.362l.47 1.384v1.012h.341v-1.012l.47-1.384h-.362l-.275.953zm-13.11 2.122v.459h.111v-.459h.163v-.097h-.438v.098h.163zm1.005.459h.118l.045-.125h.223l.045.125h.122l-.219-.556h-.118l-.216.556zm.272-.424l.077.205h-.15l.073-.205zm1.44.219v.073a.203.203 0 01-.128.045h-.005c-.024.004-.045 0-.066-.01s-.038-.024-.052-.042a.221.221 0 01-.041-.147v.001c0-.122.052-.184.16-.184a.11.11 0 01.08.021.13.13 0 01.045.065v.001c.011 0 .101-.017.112-.021-.024-.108-.101-.164-.237-.164a.288.288 0 00-.195.073c-.028.028-.048.059-.063.098s-.021.077-.017.115.024.153.073.209a.25.25 0 00.092.065l.002.001a.256.256 0 00.115.017.345.345 0 00.237-.091v-.219h-.24v.094h.129zm1.155-.351v.556h.389v-.094h-.278v-.462h-.112zm1.179 0v.556h.115v-.556h-.115zm1.04 0h-.108v.556h.104v-.362l.223.362h.112v-.557h-.101v.372l-.23-.372zm1.547.313v-.094h-.275v-.122h.296v-.098h-.41v.556h.424v-.094h-.309v-.149h.274zm2.035-.094v-.219h-.111v.556h.111v-.243h.219v.243h.112v-.557h-.111v.219h-.219zm1.548.094v-.094h-.278v-.122h.299v-.098h-.41v.556h.421v-.094h-.309v-.149h.278zm1.29-.157a.137.137 0 00-.01-.07.124.124 0 00-.041-.052.301.301 0 00-.142-.035l-.022.001h.001-.237v.556h.111v-.233h.021c.024 0 .049.003.073.014a.14.14 0 01.038.042l.122.174h.132c-.038-.063-.063-.101-.066-.108a.41.41 0 00-.124-.131l-.001-.001c.097-.017.146-.066.146-.157zm-.34.08v-.139h.087c.038-.003.08 0 .115.011a.17.17 0 01.021.028c.003.01.003.021.003.031s-.003.021-.007.031c-.007.011-.014.017-.021.024a.412.412 0 01-.115.014h-.083zm1.548.077v-.094h-.278v-.122h.299v-.098h-.41v.556h.421v-.094h-.31v-.149h.278z"/></symbol><symbol id="customers-03" viewBox="0 0 59 32"><path d="M23.809 22.647c.007.003.01.003.014.007.007.01.07.066.077.073a.636.636 0 01-.208.138l-.004.002a.81.81 0 01-.28.049h-.024.001a.793.793 0 01-.285-.045.602.602 0 01-.354-.327l-.002-.004a.742.742 0 01-.049-.261.66.66 0 01.052-.257.643.643 0 01.149-.201h.001a.715.715 0 01.226-.132.942.942 0 01.567-.003c.073.031.142.07.202.118l-.063.077c-.003.007-.011.011-.017.014s-.014.007-.024.007a.04.04 0 01-.028-.01.168.168 0 01-.035-.021c-.028-.014-.042-.024-.045-.024-.021-.01-.042-.017-.066-.028a.644.644 0 00-.083-.017.652.652 0 00-.328.025l.004-.001a.557.557 0 00-.167.098.485.485 0 00-.107.153l-.001.003a.546.546 0 00-.038.202.61.61 0 00.038.209.392.392 0 00.108.153.381.381 0 00.154.097l.003.001a.542.542 0 00.195.031c.038.003.077 0 .115-.007a.424.424 0 00.177-.052c.024-.017.052-.034.073-.052a.07.07 0 01.038-.014c.004 0 .011 0 .014.003zm2.125-.111a.57.57 0 01-.142.198h-.001a.658.658 0 01-.221.131l-.005.001a.97.97 0 01-.585-.002l.007.002a.712.712 0 01-.223-.132.566.566 0 01-.143-.202.644.644 0 01.002-.516l-.002.004a.566.566 0 01.361-.326l.005-.001a.907.907 0 01.578 0 .65.65 0 01.223.128.66.66 0 01.146.198c.031.07.049.152.049.239v.02-.001a.594.594 0 01-.049.258zm-.185-.463a.426.426 0 00-.101-.153.452.452 0 00-.157-.096l-.003-.001a.67.67 0 00-.425.001l.005-.001a.435.435 0 00-.26.248l-.001.003a.6.6 0 00.001.418l-.001-.004a.44.44 0 00.101.153.446.446 0 00.157.097l.003.001a.7.7 0 00.426-.002l-.005.001a.439.439 0 00.26-.248l.001-.003a.52.52 0 00.035-.188v-.021.001a.517.517 0 00-.034-.205zm1.75.47a.788.788 0 01.022-.048l-.001.003c.007-.017.017-.031.024-.049.049-.077.438-.689.483-.765.01-.01.021-.021.028-.021.014-.007.028-.007.042-.007h.142v1.245h-.17v-.995c.207-.364.046-.111-.114.143l-.373.633c-.007.01-.014.021-.028.028s-.028.01-.042.01h-.028a.096.096 0 01-.042-.01.124.124 0 01-.028-.028c.062.118-.103-.137-.267-.393l-.234-.389v1.002h-.167v-1.245h.146c.014 0 .024 0 .038.007.01.004.021.011.028.021l.494.769a.176.176 0 01.024.045l.021.045zm1.802.358h-.188v-1.245h.424c.077 0 .156.01.233.028a.472.472 0 01.167.076.33.33 0 01.096.12l.001.002a.433.433 0 01.031.16c0 .056-.01.108-.034.16a.368.368 0 01-.105.125.447.447 0 01-.164.079l-.003.001a.83.83 0 01-.23.031c-.014 0-.09-.003-.229-.003v.466zm.229-.602a.444.444 0 00.15-.017.35.35 0 00.104-.052.246.246 0 00.065-.082l.001-.001a.272.272 0 00.021-.104l.001-.018a.21.21 0 00-.018-.084v.001a.229.229 0 00-.066-.087.406.406 0 00-.225-.067l-.034.001h.001-.229v.511h.229zm2.171.602a.083.083 0 01-.042-.011.101.101 0 01-.024-.027c-.007-.021-.052-.122-.128-.302h-.647c-.08.181-.126.282-.136.302a.048.048 0 01-.021.028.096.096 0 01-.045.01h-.15l.57-1.245h.198l.574 1.245h-.149zm-.254-.463c-.136-.303-.208-.473-.226-.504a.926.926 0 01-.042-.118.56.56 0 00-.021.066c-.007.017-.014.038-.021.052-.017.034-.091.202-.226.504h.536zm1.252-.755l.831.939v-.967h.167V22.9h-.094c-.014 0-.028 0-.038-.007l-.031-.021-.828-.939v.967h-.17v-1.245h.101c.01 0 .024.003.035.007s.021.014.028.021zm2.397 1.218h-.188v-.494l-.526-.752h.171c.014 0 .028.003.038.01a.106.106 0 01.028.028c.031.048.295.438.327.483.014.021.024.042.035.059s.017.035.024.052c.003-.003.021-.049.024-.052l.031-.059c.058-.079.164-.237.269-.396l.054-.088c.007-.01.014-.021.024-.028.01-.01.028-.014.042-.014h.171l-.525.755v.494zm-7.461-3.311c1.28-.497 2.362-1.312 3.113-2.341.751-1.026 1.134-2.226 1.106-3.444-.143-.122-1.27-1.103-1.413-1.224a6.232 6.232 0 01-.386 3.871c-.539 1.231-1.464 2.313-2.671 3.117l.25.021z"/><path d="M26.918 19.517c1.291-.8 2.272-1.917 2.821-3.21.55-1.291.64-2.696.261-4.031l-2.01-1.743a7.489 7.489 0 01.946 4.63c-.198 1.589-.911 3.096-2.056 4.348a.29.29 0 00.038.007zm4.411-.832a7.29 7.29 0 01-1.079.68l-.041.019a6.917 6.917 0 002.609-1.28c.744-.598 1.325-1.332 1.69-2.153-.056-.049-.327-.282-.814-.706-.779 1.694-1.569 2.842-2.365 3.44z"/><path d="M32.216 14.038a5.85 5.85 0 01-1.089 3.252c-.692.981-1.673 1.781-2.842 2.32h.007c.261 0 .522-.01.779-.038a7.194 7.194 0 002.807-1.791 5.91 5.91 0 001.496-2.734c-.233-.202-1.044-.908-1.158-1.009zm-6.55-5.447c-1.238.414-2.303 1.144-3.054 2.094s-1.155 2.073-1.158 3.228c.003 1.273.497 2.508 1.402 3.509s2.167 1.715 3.586 2.021c1.269-1.343 2.014-3.002 2.122-4.738.111-1.736-.421-3.454-1.513-4.911-.278-.24-1.245-1.082-1.384-1.203zm8.978 2.244c-1.228-1.068-2.894-1.669-4.633-1.673h-.006a7.43 7.43 0 00-2.398.395l.052-.015c.849.738 7.624 6.626 8.473 7.36.275-.599.436-1.3.438-2.038v-.001c-.003-1.513-.699-2.96-1.927-4.028z"/></symbol><symbol id="customers-04" viewBox="0 0 59 32"><path d="M19.701 12.904c-.831 0-1.509.602-1.509 1.342 0 .744.678 1.343 1.509 1.343h.003c.832 0 1.51-.598 1.51-1.343 0-.741-.678-1.342-1.51-1.342h-.003zm9.868-3.172c-.821-.727-1.931-1.137-3.089-1.141-1.158.003-2.268.41-3.089 1.141-.821.727-1.28 1.715-1.283 2.744v5.677s8.741-.866 8.744-5.677c-.309-1.346-.738-2.261-1.283-2.744zM16.024 21.927c.57.508 1.343.793 2.146.793.807 0 1.579-.285 2.15-.793s.891-1.193.894-1.909v-3.951s-6.083.605-6.083 3.951c.004.717.324 1.402.894 1.909zm1.705-1.322c-.129-.076-.233-.188-.292-.316s-.077-.271-.045-.411a.68.68 0 01.219-.362.856.856 0 01.872-.152l-.006-.002a.77.77 0 01.357.259l.001.002a.65.65 0 01.071.668l.002-.004a.686.686 0 01-.17.229l-.001.001a.89.89 0 01-.255.154l-.006.002a.886.886 0 01-.302.052h-.005v-.003c-.205-.028-.355-.066-.442-.119zm6.003-.271v.609h-.306v-1.485h.967v.247h-.661v.386h.588v.244h-.588zm1.979.285a.59.59 0 01-.22.253l-.002.001a.612.612 0 01-.331.091.597.597 0 01-.553-.345.849.849 0 01-.08-.364v-.015.001-.073c0-.146.028-.275.08-.383a.581.581 0 01.553-.349.585.585 0 01.548.345l.001.004c.056.108.08.237.08.383v.066a1.296 1.296 0 01-.077.386zm-.316-.806a.269.269 0 00-.237-.122.268.268 0 00-.24.122c-.056.077-.083.195-.083.348v.073c0 .153.028.268.083.351.056.087.136.125.24.125s.181-.038.237-.118c.056-.08.083-.198.083-.351v-.073c-.017-.184-.045-.302-.083-.355zm1.325.608a.75.75 0 00-.223-.098 1.538 1.538 0 01-.259-.108l.008.004c-.167-.091-.254-.212-.254-.369 0-.077.024-.149.069-.212s.112-.111.195-.146c.083-.038.181-.056.285-.056s.198.021.282.059c.08.035.145.091.19.162l.001.002a.394.394 0 01.073.23v.007h-.306a.196.196 0 00-.066-.156.264.264 0 00-.181-.059c-.073 0-.132.017-.174.049s-.063.073-.063.125c0 .049.024.087.073.122a.894.894 0 00.216.091c.174.052.299.118.379.195s.122.174.122.288c0 .129-.049.23-.146.303s-.229.111-.393.111c-.115 0-.219-.021-.313-.063s-.163-.101-.216-.174a.437.437 0 01-.073-.25h.306c0 .163.097.243.296.243a.275.275 0 00.17-.045.143.143 0 00.059-.116v-.006c0-.059-.021-.104-.059-.132zm1.238-.716v1.238h-.306v-1.238h-.448v-.247h1.207v.247h-.452zm.936.594v.397h.688v.247h-.995v-1.485h.991v.247h-.685v.355h.584v.24h-.584zm1.172.101v.543h-.306v-1.485h.553c.174 0 .309.038.403.118.098.077.143.188.143.33a.455.455 0 01-.066.254.424.424 0 01-.196.159l-.003.001c.021.042.129.243.32.609v.014h-.327l-.278-.543h-.244zm.247-.25c.077 0 .136-.017.177-.056.042-.042.063-.094.063-.163s-.017-.125-.059-.163c-.038-.042-.101-.063-.181-.063h-.247v.445h.247zm1.607.793h-.306v-1.485h.578a.67.67 0 01.296.063.433.433 0 01.194.172l.001.002a.466.466 0 01.066.242v.012-.001a.42.42 0 01-.15.344c-.097.083-.236.125-.41.125h-.268v.525zm.271-.772c.08 0 .143-.017.184-.056.045-.038.066-.094.066-.163a.238.238 0 00-.066-.177c-.042-.045-.101-.066-.178-.069h-.278v.466h.271zm1.075.128v.397h.688v.247h-.995v-1.485h.995v.247h-.688v.355h.587v.24h-.587zm1.552-.594v1.238h-.306v-1.238h-.449v-.247h1.211v.247h-.456zm.935.594v.397h.689v.247h-.995v-1.485h.991v.247h-.685v.355h.587v.24h-.587zm1.172.101v.543h-.306v-1.485h.553c.174 0 .309.038.407.118a.404.404 0 01.142.33.482.482 0 01-.066.254.456.456 0 01-.199.159l-.003.001c.024.042.129.243.323.609v.014h-.33l-.278-.543h-.244zm.247-.25a.264.264 0 00.181-.056c.042-.042.063-.094.063-.163s-.021-.125-.063-.163c-.038-.042-.097-.063-.181-.063h-.247v.445h.247zm1.489.271a.67.67 0 00-.219-.098 1.379 1.379 0 01-.258-.108l.007.004c-.17-.091-.254-.212-.254-.369 0-.077.021-.149.066-.212s.111-.111.195-.146a.69.69 0 01.273-.056h.013-.001c.108 0 .202.021.285.059s.146.091.191.163c.044.065.07.145.07.232v.005h-.306c0-.066-.021-.122-.063-.156-.045-.038-.104-.059-.181-.059s-.132.017-.174.049a.148.148 0 00-.063.125c0 .049.024.087.073.122a.854.854 0 00.212.091c.174.052.303.118.383.195s.118.174.118.288c0 .129-.049.23-.146.303s-.226.111-.393.111c-.112 0-.216-.021-.31-.063s-.167-.101-.216-.174a.437.437 0 01-.073-.25h.306c0 .163.097.243.292.243.073 0 .132-.014.17-.045a.138.138 0 00.063-.122c0-.059-.021-.104-.063-.132z"/></symbol><symbol id="customers-05" viewBox="0 0 59 32"><path d="M20.563 21.464c.007.08-.01.163-.045.237s-.083.139-.153.195a.926.926 0 01-.52.158l-.056-.002h.003-1.009v-2.153h.988l.063-.002c.181 0 .35.054.49.147l-.003-.002a.524.524 0 01.15.181c.031.07.045.146.042.223l.001.022a.458.458 0 01-.116.305.54.54 0 01-.296.17l-.003.001a.584.584 0 01.341.184.486.486 0 01.125.337zm-.886-.664a.422.422 0 00.268-.07.289.289 0 00.073-.097.25.25 0 00.017-.115l.001-.019a.283.283 0 00-.018-.097l.001.002a.322.322 0 00-.073-.097.443.443 0 00-.277-.07h.002-.417v.563h.424zm.386.727a.293.293 0 00.024-.118.268.268 0 00-.104-.223.452.452 0 00-.255-.078l-.031.001h.001-.445v.591h.449a.48.48 0 00.285-.073.271.271 0 00.076-.099l.001-.002zm1.846-.317h-.208v.842h-.473v-2.153h.898a.91.91 0 01.625.183l-.002-.002a.678.678 0 01.217.475.657.657 0 01-.148.416l.001-.001a.737.737 0 01-.424.218h-.004c.038.059.233.345.584.863h-.514l-.549-.842zm.182-.295c.267 0 .403-.108.403-.323a.347.347 0 00-.024-.132.272.272 0 00-.076-.111.426.426 0 00-.261-.089l-.044.002h.002-.393l.003.654h.39zm2.013.702l-.167.435h-.497l.866-2.129h.536l.866 2.129h-.497l-.163-.435h-.942zm.474-1.234l-.348.908h.692l-.344-.908zm3.238 1.669l-1.054-1.464v1.464h-.47v-2.153h.47l1.054 1.471v-1.471h.47v2.153h-.47zm2.727-.135a1.536 1.536 0 01-.661.136h-.835V19.9h.835l.048-.001c.222 0 .433.049.622.137l-.009-.004c.179.08.325.21.422.371l.002.004c.098.174.15.369.15.563s-.052.39-.15.564a1 1 0 01-.418.38l-.006.003zm.093-.947a.761.761 0 00-.205-.515.863.863 0 00-.594-.181h.003-.323v1.392h.323a.86.86 0 00.593-.183l-.002.001a.76.76 0 00.205-.514zm.641-7.92v5.131s-6.059-2.098-5.934-5.131V7.919c4.042 1.398 6.021 3.106 5.934 5.13zm9.259 2.63v-1.607c-1.593.563-2.946 1.582-3.854 2.908a8.777 8.777 0 013.854-1.301z"/><path d="M40.536 13.736V9.11s-8.637 2.984-8.456 7.304v7.308s.386-.132.991-.383c0-.233 0-.469.028-.706.177-2.007 1.217-3.864 2.894-5.169.939-1.728 2.563-3.061 4.543-3.728z"/><path d="M35.475 18.682c-1.044 1.127-1.677 2.522-1.805 3.993a5.29 5.29 0 00-.024.421c.724-.316 1.27-.584 1.805-.87l-.143.07a6.79 6.79 0 01-.163-1.501c0-.217.01-.432.029-.645l-.002.027c.051-.552.158-1.06.316-1.545l-.014.049zm.146 3.44c2.362-1.294 5.012-3.294 4.911-5.708v-.209c-1.687.174-3.263.849-4.491 1.92a6.434 6.434 0 00-.523 2.055l-.002.025a6.584 6.584 0 00.112 1.96l-.008-.043z"/></symbol><symbol id="customers-06" viewBox="0 0 59 32"><path d="M29.503 14.407v-1.002c0-.309.07-.543.209-.703s.379-.24.72-.24c.317 0 .546.07.678.205a.842.842 0 01.203.55l-.002.054v-.002.233h-.57v-.236c0-.08-.003-.157-.017-.233a.221.221 0 00-.08-.139.335.335 0 00-.187-.056l-.023.001h.001a.351.351 0 00-.216.059.256.256 0 00-.097.151v.002a1.422 1.422 0 00-.021.244v1.22a.612.612 0 00.073.341c.03.037.068.066.113.083l.002.001a.301.301 0 00.146.018l.028.001a.31.31 0 00.175-.054l-.001.001a.259.259 0 00.087-.148v-.002c.01-.08.017-.163.017-.243v-.247h.57v.226l.001.053c0 .219-.075.42-.201.579l.002-.002c-.132.15-.355.223-.682.223-.33 0-.578-.08-.72-.243a1.021 1.021 0 01-.211-.625l.002-.07v.003zm2.372.017V13.37c0-.299.069-.525.216-.678.142-.153.383-.23.723-.23.334 0 .574.077.717.23.146.153.219.379.219.678v1.054c0 .299-.073.525-.219.685-.146.156-.386.233-.716.233-.334 0-.581-.08-.724-.233-.146-.157-.216-.383-.216-.685zm1.273.119v-1.291l.001-.032c0-.1-.026-.195-.072-.277l.001.003a.253.253 0 00-.113-.083l-.002-.001a.321.321 0 00-.151-.017h.002a.294.294 0 00-.271.1.595.595 0 00-.066.306v1.297a.58.58 0 00.066.313.403.403 0 00.414.077.357.357 0 00.122-.077v-.007a.816.816 0 00.069-.313zm1.902-2.049l.462 1.948.473-1.948h.598l.059 2.811H36.2l-.048-1.951-.456 1.951h-.355l-.473-1.958-.042 1.958h-.449l.056-2.81h.616zm3.239 0c.553 0 .828.268.828.8 0 .508-.289.762-.87.762h-.327v1.249h-.591l.003-2.81h.957zm.034 1.189a.506.506 0 00.154-.077l-.001.001a.452.452 0 00.083-.317.938.938 0 00-.028-.257.306.306 0 00-.045-.077v.001a.314.314 0 00-.071-.055l-.002-.001a.615.615 0 00-.235-.046l-.031.001h.001-.23v.842h.23a.69.69 0 00.174-.014zm2.279-1.189l.654 2.811h-.553l-.128-.647h-.567l-.132.647h-.556l.65-2.81h.633zm-.313.657l-.219 1.179h.442l-.222-1.179zm1.906-.657l.79 1.604v-1.604h.491v2.811h-.393l-.797-1.673v1.673h-.508l.003-2.81h.414zm1.77.007h.556l.4 1.113.376-1.113h.542l-.647 1.732v1.071h-.571v-1.071l-.657-1.732zm-13.339 4.177h-.483v1.144h-.202v-1.144h-.483v-.146h1.169v.146zm1.353 1.145c-.014 0-.031-.003-.042-.014a.075.075 0 01-.028-.028l-.139-.306h-.668c-.083.181-.128.285-.139.306a.088.088 0 01-.021.035.096.096 0 01-.045.01h-.157l.591-1.287h.205l.598 1.283h-.156zm-.264-.48c-.142-.313-.219-.491-.237-.525a.797.797 0 01-.042-.122c-.011.024-.017.049-.024.07a.515.515 0 01-.021.056l-.233.522h.557zm1.551.351a.762.762 0 00.181-.038l.077-.031v-.289h-.237c-.003 0-.01 0-.014-.003-.007-.003-.011-.003-.017-.007-.003-.003-.007-.007-.007-.011-.003-.003-.003-.01-.003-.014v-.098h.459v.494c-.038.021-.077.042-.118.059s-.087.035-.132.045c-.049.01-.097.021-.146.024a1.452 1.452 0 01-.174.011.956.956 0 01-.299-.049.766.766 0 01-.237-.136.643.643 0 01-.205-.465v-.005c0-.094.017-.184.052-.271a.588.588 0 01.152-.201l.001-.001a.71.71 0 01.231-.134l.005-.002a1.087 1.087 0 01.623-.003.693.693 0 01.219.118c-.007.007-.049.073-.056.08a.034.034 0 01-.021.017.055.055 0 01-.024.007.06.06 0 01-.038-.011.312.312 0 01-.057-.032l.001.001a.925.925 0 00-.08-.035.997.997 0 00-.1-.027l-.008-.001a1.155 1.155 0 00-.15-.01h-.003a.72.72 0 00-.226.034.585.585 0 00-.174.101.495.495 0 00-.11.157l-.001.003a.597.597 0 00.002.436l-.001-.004a.526.526 0 00.118.163.578.578 0 00.17.1l.004.001a.645.645 0 00.233.024.686.686 0 00.111 0zm2.417-.021v.149h-.842v-1.291h.202l-.003 1.141h.644zm.47.15v-1.291h.202v1.291h-.202zm.985-1.26l.862.97v-1.005h.178v1.294h-.101a.157.157 0 01-.045-.007l-.031-.024c-.087-.098-.776-.877-.862-.97v1.002h-.171v-1.291h.108c.011 0 .021.004.031.007a.078.078 0 01.031.024zm2.528.112h-.717v.424h.581v.139h-.581v.438h.716v.142h-.925v-1.287h.925v.142zm-12.202-5.899v7.708l-8.974-2.198V8.578l8.974 2.198zm-9.547 5.881l10.122 2.483v-8.738L17.917 7.919v8.738z"/><path d="M13.217 20.713v-8.738l10.122 2.483v8.738l-10.122-2.483z"/><path d="M26.939 10.647l-3.767 3.256-8.856-2.174 3.767-3.252 8.856 2.17zm-13.722 1.329l10.122 2.483 4.699-4.056L17.916 7.92l-4.699 4.056zm14.821 7.165l-4.128-1.012v4.578l4.128-3.566z"/></symbol><symbol id="icon-mail" viewBox="0 0 43 32"><path d="M38.667 0H4C1.795 0 0 1.794 0 4v24c0 2.206 1.794 4 4 4h34.667c2.206 0 4-1.794 4-4V4c0-2.205-1.794-4-4-4zm0 2.667c.184 0 .36.038.52.107l-.009-.003-17.844 15.466L3.489 2.771c.15-.065.325-.103.509-.103h34.669zm0 26.666H4A1.334 1.334 0 012.667 28V5.587L20.46 21.008c.231.202.536.325.869.325h.006c.334 0 .64-.123.873-.327l-.002.002L39.999 5.587V28a1.334 1.334 0 01-1.333 1.333z"/></symbol><symbol id="icon-phone" viewBox="0 0 20 32"><path d="M49.378 15.049h5.195v3.035h-5.195v5.92h-3.227v-5.92h-5.223v-3.035h5.223V9.512h3.227v5.537zm12.126-.52h2.023c1.021-.009 1.828-.273 2.42-.793.602-.519.903-1.271.903-2.256 0-.948-.251-1.681-.752-2.201-.492-.529-1.248-.793-2.269-.793-.893 0-1.627.26-2.201.779-.574.51-.861 1.18-.861 2.01h-3.322c0-1.021.269-1.95.806-2.789.547-.838 1.304-1.49 2.27-1.955.975-.474 2.064-.711 3.267-.711 1.987 0 3.545.501 4.676 1.504 1.139.993 1.709 2.379 1.709 4.156 0 .893-.287 1.736-.861 2.529a5.32 5.32 0 01-2.201 1.777c1.094.374 1.923.962 2.488 1.764.574.802.862 1.759.862 2.871 0 1.787-.615 3.208-1.846 4.266-1.221 1.058-2.83 1.586-4.826 1.586-1.914 0-3.482-.51-4.703-1.531s-1.832-2.379-1.832-4.074h3.322c0 .875.292 1.586.875 2.133.593.547 1.386.82 2.379.82 1.03 0 1.841-.273 2.434-.82s.888-1.34.888-2.379c0-1.048-.31-1.855-.93-2.42s-1.54-.848-2.762-.848h-1.955v-2.625zm25.169-3.185c0 .975-.251 1.846-.752 2.611-.501.757-1.185 1.354-2.051 1.791 1.039.483 1.837 1.144 2.392 1.982.565.839.847 1.787.847 2.844 0 1.75-.593 3.14-1.778 4.17-1.184 1.021-2.762 1.531-4.73 1.531-1.978 0-3.564-.515-4.758-1.545-1.185-1.03-1.778-2.415-1.778-4.156 0-1.066.283-2.023.848-2.871s1.358-1.499 2.379-1.955c-.857-.438-1.536-1.034-2.037-1.791-.492-.766-.738-1.636-.738-2.611 0-1.695.547-3.04 1.641-4.033s2.57-1.491 4.43-1.491c1.868 0 3.349.497 4.443 1.491s1.641 2.338 1.641 4.033zm-2.884 9.064c0-.984-.297-1.777-.889-2.379-.583-.611-1.358-.916-2.324-.916s-1.741.301-2.324.902c-.574.602-.861 1.399-.861 2.393 0 .975.282 1.755.848 2.338.574.583 1.362.875 2.365.875s1.782-.282 2.338-.848c.565-.565.848-1.353.848-2.365zm-.424-8.941c0-.866-.251-1.577-.752-2.133-.502-.565-1.176-.848-2.023-.848s-1.517.269-2.01.807c-.492.529-.738 1.253-.738 2.174 0 .911.246 1.636.738 2.174.501.537 1.176.807 2.023.807s1.518-.269 2.01-.807c.501-.537.752-1.262.752-2.174zm27.753 6.152c0 2.862-.538 5.022-1.614 6.481-1.066 1.449-2.693 2.174-4.881 2.174-2.151 0-3.773-.706-4.867-2.119-1.085-1.422-1.641-3.523-1.668-6.303v-3.445c0-2.862.533-5.008 1.6-6.439 1.076-1.431 2.712-2.147 4.908-2.147 2.178 0 3.801.697 4.867 2.092 1.076 1.394 1.627 3.482 1.654 6.262v3.445zm-3.323-3.719c0-1.868-.255-3.236-.766-4.102-.51-.875-1.322-1.313-2.433-1.313-1.084 0-1.882.415-2.392 1.244-.511.82-.779 2.106-.807 3.856v4.512c0 1.859.26 3.245.779 4.156s1.335 1.367 2.447 1.367c1.067 0 1.855-.419 2.366-1.258.51-.848.779-2.169.806-3.965v-4.498zm16.242 3.774c-1.112 1.176-2.411 1.764-3.897 1.764-1.75 0-3.145-.611-4.184-1.832-1.039-1.23-1.558-2.844-1.558-4.84 0-1.313.264-2.502.793-3.568s1.281-1.896 2.256-2.488c.976-.593 2.106-.889 3.391-.889 2.005 0 3.596.748 4.772 2.242s1.763 3.495 1.763 6.002v.93c0 3.591-.811 6.33-2.434 8.217s-4.042 2.844-7.26 2.871h-.397v-2.747h.478c1.96-.027 3.464-.497 4.512-1.408 1.048-.921 1.636-2.338 1.764-4.252zm-3.199-.834c.666 0 1.29-.192 1.873-.574s1.034-.912 1.353-1.586v-1.299c0-1.467-.301-2.648-.903-3.541s-1.381-1.34-2.338-1.34-1.723.397-2.297 1.189c-.565.784-.848 1.777-.848 2.981 0 1.249.287 2.256.861 3.021s1.34 1.148 2.297 1.148zm20.589-10.842v2.748h-.41c-1.859.027-3.345.537-4.457 1.531s-1.773 2.402-1.982 4.224c1.066-1.121 2.429-1.681 4.088-1.681 1.759 0 3.145.619 4.156 1.859 1.021 1.239 1.531 2.839 1.531 4.798 0 2.024-.597 3.664-1.791 4.922-1.185 1.249-2.744 1.873-4.676 1.873-1.987 0-3.6-.733-4.84-2.201-1.231-1.467-1.846-3.391-1.846-5.769v-1.135c0-3.491.848-6.225 2.543-8.203 1.704-1.978 4.152-2.967 7.342-2.967h.342zm-3.568 9.502a3.602 3.602 0 00-3.336 2.256v1.012c0 1.477.31 2.652.93 3.527.62.866 1.422 1.299 2.406 1.299s1.763-.369 2.338-1.108c.574-.738.862-1.709.862-2.912s-.292-2.183-.875-2.939-1.358-1.135-2.324-1.135zM164.094 26h-3.309V10.018l-4.881 1.668V8.883l7.766-2.857h.423v19.975zm16.474 0h-3.309V10.018l-4.881 1.668V8.883l7.766-2.857h.424v19.975zm16.474 0h-3.308V10.018l-4.881 1.668V8.883l7.766-2.857h.424v19.975zm24.007 0h-3.308V10.018l-4.882 1.668V8.883l7.766-2.857h.424v19.975zm16.474 0h-3.308V10.018l-4.882 1.668V8.883l7.766-2.857h.424v19.975zm24.006 0h-3.308V10.018l-4.88 1.668V8.883l7.766-2.857h.422v19.975zm16.474 0h-3.308V10.018l-4.88 1.668V8.883l7.766-2.857h.422v19.975zM16.999 0h-14c-1.654 0-3 1.346-3 3v26c0 1.654 1.346 3 3 3h14c1.654 0 3-1.346 3-3V3c0-1.654-1.346-3-3-3zm-14 2h14a1 1 0 011 1v21h-16V3a1 1 0 011-1zm14 28h-14a1 1 0 01-1-1v-3h16v3a1 1 0 01-1 1z"/><path d="M4.706 27.478c.391.365.391.956 0 1.321s-1.024.365-1.414 0c-.391-.365-.391-.956 0-1.321s1.023-.365 1.414 0z"/></symbol><symbol id="icon-social-facebook" viewBox="0 0 32 32"><path d="M19.753 11.142V8.829a17.932 17.932 0 00-1.934-.102c-1.92 0-3.229 1.207-3.229 3.418v2.036h-2.109v2.589h2.109v6.502h2.589V16.77h2.029l.32-2.589h-2.349v-1.782c0-.749.204-1.258 1.244-1.258h1.331z"/></symbol><symbol id="icon-social-in" viewBox="0 0 32 32"><path d="M23.273 23.273v-5.338c0-2.603-.56-4.618-3.615-4.618-1.462 0-2.451.807-2.851 1.571h-.044v-1.323h-2.894v9.709h3.018v-4.808c0-1.266.24-2.494 1.804-2.494 1.549 0 1.571 1.447 1.571 2.574v4.727h3.011zm-11.287-9.709v9.709H8.968v-9.709h3.018zm-3.259-3.091c0 .967.786 1.767 1.746 1.767.967 0 1.745-.8 1.745-1.767 0-.964-.781-1.745-1.745-1.746-1.164.524-1.746 1.106-1.746 1.746z"/></symbol><symbol id="icon-social-instagram" viewBox="0 0 32 32"><path d="M22.924 11.236a3.668 3.668 0 00-.843-1.287 3.587 3.587 0 00-1.263-.828l-.024-.008c-.465-.182-.989-.306-1.767-.342s-1.025-.044-2.996-.044c-1.978 0-2.225.008-2.996.044-.778.036-1.309.16-1.768.334a3.668 3.668 0 00-1.287.843 3.596 3.596 0 00-.835 1.263l-.008.024c-.174.465-.305.989-.334 1.767-.036.778-.044 1.025-.044 2.996 0 1.978.008 2.226.037 2.996.036.778.16 1.309.342 1.768.194.504.481.934.843 1.286l.001.001c.353.363.783.65 1.263.836l.024.008c.458.174.989.298 1.76.334.778.036 1.026.044 2.997.044 1.978 0 2.225-.008 3.003-.044.771-.036 1.302-.16 1.76-.334a3.724 3.724 0 002.131-2.131c.174-.465.305-.989.334-1.767.036-.771.044-1.018.044-2.996 0-1.971 0-2.218-.037-2.996-.036-.771-.16-1.302-.334-1.768zm-1.222 9.055a2.452 2.452 0 01-1.365 1.376l-.016.006c-.254.102-.647.218-1.353.247-.763.036-.996.044-2.938.044s-2.174-.008-2.938-.044c-.713-.029-1.091-.146-1.346-.247a2.147 2.147 0 01-.835-.545l-.001-.001a2.174 2.174 0 01-.541-.814l-.005-.015c-.102-.262-.218-.647-.247-1.353-.037-.771-.044-.996-.044-2.938s.007-2.174.044-2.938c.029-.713.145-1.091.247-1.353a2.18 2.18 0 01.545-.828l.001-.001a2.2 2.2 0 01.836-.545c.255-.102.64-.218 1.353-.248.763-.036.996-.044 2.931-.044 1.949 0 2.174.008 2.938.044.712.029 1.098.146 1.353.248.313.116.604.298.836.545.235.227.421.504.54.814l.005.015c.094.262.218.648.247 1.353.037.764.044.996.044 2.938s-.008 2.167-.044 2.938c-.029.706-.153 1.091-.247 1.346z"/><path d="M12.291 16a3.737 3.737 0 003.738 3.738A3.736 3.736 0 0019.76 16a3.74 3.74 0 00-3.731-3.738A3.741 3.741 0 0012.291 16zm1.309 0c0-1.338 1.091-2.422 2.429-2.422a2.422 2.422 0 110 4.844A2.428 2.428 0 0113.6 16zm6.313-3.011a.874.874 0 01-.872-.873.876.876 0 01.873-.873c.48 0 .872.393.872.873a.876.876 0 01-.872.873z"/></symbol><symbol id="icon-social-twitter" viewBox="0 0 32 32"><path d="M21.556 11.964a2.961 2.961 0 001.309-1.651 5.803 5.803 0 01-1.853.714l-.038.006a2.968 2.968 0 00-2.169-.938h-.006a2.981 2.981 0 00-2.982 2.982c0 .233.022.458.066.677a8.465 8.465 0 01-6.146-3.12 3.06 3.06 0 00-.407 1.512 2.974 2.974 0 001.313 2.466l.011.007a2.927 2.927 0 01-1.346-.363v.031a2.993 2.993 0 002.366 2.926l.02.003a2.913 2.913 0 01-.769.102h-.01.001a2.9 2.9 0 01-.568-.051c.393 1.178 1.484 2.044 2.786 2.073a5.936 5.936 0 01-3.688 1.273h-.007c-.247 0-.48-.007-.713-.044a8.356 8.356 0 004.574 1.346c5.483 0 8.488-4.546 8.488-8.488 0-.131-.008-.262-.015-.385a5.964 5.964 0 001.498-1.549c-.538.24-1.12.393-1.717.473z"/></symbol><symbol id="close-modal" viewBox="0 0 32 32"><path d="M26.667 7.303l-1.97-1.97-7.808 7.808-7.808-7.808-1.97 1.97 7.808 7.808-7.808 7.808 1.97 1.97 7.808-7.808 7.808 7.808 1.97-1.97-7.808-7.808 7.808-7.808z"/></symbol><symbol id="icon-send" viewBox="0 0 32 32"><path d="M32 0L0 18l10.227 3.787L26 7 14.003 23.187l.009.003-.012-.003V32l5.735-6.691L27.002 28l4.999-28z"/></symbol><symbol id="modal-icon-name" viewBox="0 0 32 32"><path d="M16 16a5.333 5.333 0 100-10.666A5.333 5.333 0 1016 16zm0 2.667c-3.561 0-10.667 1.787-10.667 5.333v1.333c0 .732.599 1.333 1.333 1.333h18.667c.732 0 1.333-.601 1.333-1.333V24c0-3.547-7.108-5.333-10.667-5.333z"/></symbol><symbol id="modal-icon-phone" viewBox="0 0 32 32"><path d="M24.882 19.774l-3.268-.373a2.552 2.552 0 00-2.11.732l-2.368 2.368c-3.669-1.894-6.585-4.81-8.427-8.372l-.051-.108 2.382-2.377a2.552 2.552 0 00.731-2.122l.001.012-.373-3.243a2.578 2.578 0 00-2.557-2.276H6.613c-1.454 0-2.663 1.209-2.574 2.661.683 10.987 9.47 19.762 20.444 20.444 1.452.089 2.663-1.12 2.663-2.574V22.32v-.012a2.549 2.549 0 00-2.253-2.532l-.012-.001z"/></symbol><symbol id="modal-icon-email" viewBox="0 0 32 32"><path d="M26.667 5.333H5.334A2.662 2.662 0 002.682 8l-.014 16c0 1.467 1.2 2.667 2.667 2.667h21.333c1.467 0 2.667-1.2 2.667-2.667V8c0-1.467-1.2-2.667-2.667-2.667zm-.534 5.668l-9.426 5.892a1.343 1.343 0 01-1.421-.004l.006.003L5.866 11A1.133 1.133 0 117.07 9.083l-.004-.003 8.933 5.586 8.933-5.588a1.132 1.132 0 111.204 1.916l-.005.003z"/></symbol><symbol id="modal-icon-checkbox" viewBox="0 0 34 32"><path d="M29.867 0c2.837 0 4.267 1.429 4.267 4.267v23.467c0 2.837-1.429 4.267-4.267 4.267h-25.6C1.43 32.001 0 30.572 0 27.734V4.267C0 1.43 1.429 0 4.267 0h25.6z"/><path fill="var(--color5, #fff)" d="M8.299 16.405l-.149.128-1.899 1.792-.171.149.171.171 7.616 7.253.128-.149 16.171-15.424-.149-.149-1.877-1.792-.149-.149-.149.149-13.973 13.312-5.419-5.163-.149-.128z"/><path fill="none" stroke-width=".427" d="M8.299 16.405l-.149.128-1.899 1.792-.171.149.171.171 7.616 7.253.128-.149 16.171-15.424-.149-.149-1.877-1.792-.149-.149-.149.149-13.973 13.312-5.419-5.163-.149-.128z"/></symbol></defs></svg>